<svg xmlns="http://www.w3.org/2000/svg" width="500" height="500" viewBox="0 0 500 500" version="1.1">
	<path d="M 243.500 1.131 C 217.299 7.221, 143.835 45.435, 88.500 81.757 C 57.265 102.260, 38.125 117.979, 33.986 126.528 C 26.814 141.345, 22.921 185.971, 22.941 253.132 C 22.961 316.920, 26.859 360.003, 33.851 373.709 C 42.879 391.404, 119.987 442.142, 191.500 477.444 C 222.503 492.749, 241.780 500, 251.463 500 C 271.619 500, 353.990 458.301, 418 415.693 C 448.519 395.379, 465.288 381.159, 469.036 372.416 C 483.591 338.461, 483.538 161.416, 468.963 127.413 C 467.714 124.500, 464.386 120.218, 460.310 116.280 C 427.892 84.960, 306.949 15.119, 263.152 2.427 C 254.351 -0.123, 250.101 -0.404, 243.500 1.131 M 325.500 141.504 C 307.780 144.612, 287.082 151.901, 266.697 162.211 L 252.895 169.192 245.697 165.454 C 241.739 163.397, 238.050 161.374, 237.500 160.958 C 235.697 159.592, 215.676 151.327, 207.500 148.573 C 196.919 145.008, 180.337 141.003, 176.154 141.001 C 174.314 141.001, 171.515 141.764, 169.933 142.699 C 167.181 144.324, 163.705 149.714, 164.539 151.063 C 164.758 151.417, 168.213 151.958, 172.218 152.265 C 190.833 153.691, 219.892 163.965, 244.386 177.777 L 253.271 182.788 258.342 179.798 C 286.544 163.170, 319.430 152.075, 341.015 151.907 C 349.816 151.838, 350 151.787, 350 149.434 C 350 148.113, 348.726 145.605, 347.168 143.862 C 344.746 141.151, 343.551 140.650, 338.918 140.396 C 335.938 140.234, 329.900 140.732, 325.500 141.504 M 127.900 147.984 C 119.976 150.309, 104.642 163.286, 102.566 169.423 C 101.094 173.776, 101.893 178.358, 104.578 180.953 C 106.028 182.354, 106.329 182.265, 107.771 180 C 108.647 178.625, 112.769 174.090, 116.932 169.923 C 122.666 164.182, 126.439 161.407, 132.500 158.471 C 136.900 156.340, 140.623 154.526, 140.774 154.441 C 141.562 153.995, 139.550 150.938, 137.666 149.718 C 134.618 147.745, 130.940 147.092, 127.900 147.984 M 376.774 153.744 C 372.390 156.462, 372.720 157.652, 378.806 161.070 C 386.238 165.244, 396.702 176.087, 400.900 183.963 L 404.235 190.220 406.648 187.806 C 410.410 184.044, 410.764 178.979, 407.637 173.644 C 404.053 167.529, 395.868 158.764, 390.293 155.070 C 385.068 151.610, 380.878 151.199, 376.774 153.744 M 87.886 206.811 C 84.288 210.025, 83.153 214.779, 83.066 227 C 82.902 249.786, 91.043 276.147, 104.926 297.790 C 111.875 308.623, 115.777 312, 121.344 312 C 123.694 312, 126.486 311.365, 127.547 310.590 C 129.385 309.245, 129.213 308.904, 123.844 303.275 C 111.922 290.776, 102.137 271.103, 96.849 249 C 95.375 242.840, 95.021 216.306, 96.311 208.750 L 97.123 204 94.077 204 C 92.152 204, 89.875 205.034, 87.886 206.811 M 411.372 226.195 C 411.258 257.435, 401.066 283.287, 379.774 306.346 C 370.611 316.269, 370.381 317.054, 376.202 318.515 C 380.958 319.708, 385.422 317.323, 391.744 310.208 C 410.718 288.857, 423.964 253.289, 422.820 226.762 C 422.516 219.706, 422.223 218.765, 419.493 216.072 C 417.847 214.449, 415.358 212.843, 413.962 212.505 L 411.425 211.890 411.372 226.195 M 144.161 328.547 C 140.847 335.820, 144.541 340.916, 162.860 354.340 C 167.245 357.553, 170.195 358.999, 172.360 358.996 C 175.891 358.992, 182.745 355.278, 181.384 354.107 C 180.898 353.689, 178.025 351.582, 175.001 349.424 C 171.976 347.266, 164.222 341.113, 157.770 335.750 C 151.317 330.387, 145.877 326, 145.680 326 C 145.482 326, 144.799 327.146, 144.161 328.547 M 350.405 334.136 C 349.357 335.310, 341.387 341.602, 332.693 348.116 L 316.886 359.960 320.193 361.976 C 326.692 365.939, 330.090 364.743, 344.709 353.352 C 354.435 345.774, 356 343.764, 356 338.859 C 356 331.870, 353.961 330.149, 350.405 334.136 M 199.480 371.255 C 198.288 377.609, 200.731 381.025, 211.130 387.543 C 216.283 390.774, 227.612 398.048, 236.305 403.708 C 244.997 409.369, 252.518 414, 253.018 414 C 253.841 414, 284.249 394.809, 293.202 388.639 C 298.031 385.310, 300.370 380.788, 299.543 376.379 C 299.195 374.520, 298.408 373, 297.796 373 C 297.184 373, 292.591 375.628, 287.591 378.840 C 282.591 382.051, 272.766 388.371, 265.758 392.882 L 253.016 401.086 247.258 397.217 C 237.355 390.565, 203.268 369.040, 201.657 368.422 C 200.521 367.986, 199.955 368.722, 199.480 371.255" stroke="none" fill="black" fill-rule="evenodd"/>
</svg>